<svg width="491" height="56" viewBox="0 0 491 56" fill="none" xmlns="http://www.w3.org/2000/svg">
<path d="M43.915 5H52.415V39H43.915V35.4062C42.2483 36.9896 40.5713 38.1354 38.8838 38.8438C37.2171 39.5312 35.4046 39.875 33.4463 39.875C29.0504 39.875 25.2483 38.1771 22.04 34.7812C18.8317 31.3646 17.2275 27.125 17.2275 22.0625C17.2275 16.8125 18.7796 12.5104 21.8838 9.15625C24.9879 5.80208 28.7588 4.125 33.1963 4.125C35.2379 4.125 37.1546 4.51042 38.9463 5.28125C40.7379 6.05208 42.3942 7.20833 43.915 8.75V5ZM34.9463 12C32.3004 12 30.1025 12.9375 28.3525 14.8125C26.6025 16.6667 25.7275 19.0521 25.7275 21.9688C25.7275 24.9062 26.6129 27.3229 28.3838 29.2188C30.1754 31.1146 32.3733 32.0625 34.9775 32.0625C37.665 32.0625 39.8942 31.1354 41.665 29.2812C43.4358 27.4062 44.3213 24.9583 44.3213 21.9375C44.3213 18.9792 43.4358 16.5833 41.665 14.75C39.8942 12.9167 37.6546 12 34.9463 12ZM61.6488 5H81.4925V13.125H70.2113V39H61.6488V5ZM96.4137 5V8.75C97.9554 7.20833 99.6221 6.05208 101.414 5.28125C103.205 4.51042 105.122 4.125 107.164 4.125C111.601 4.125 115.372 5.80208 118.476 9.15625C121.58 12.5104 123.132 16.8125 123.132 22.0625C123.132 27.125 121.528 31.3646 118.32 34.7812C115.112 38.1771 111.31 39.875 106.914 39.875C104.955 39.875 103.132 39.5312 101.445 38.8438C99.7575 38.1354 98.0804 36.9896 96.4137 35.4062V51.4375H87.945V5H96.4137ZM105.382 12C102.695 12 100.466 12.9167 98.695 14.75C96.9242 16.5833 96.0387 18.9792 96.0387 21.9375C96.0387 24.9583 96.9242 27.4062 98.695 29.2812C100.466 31.1354 102.695 32.0625 105.382 32.0625C107.987 32.0625 110.174 31.1146 111.945 29.2188C113.737 27.3229 114.632 24.9062 114.632 21.9688C114.632 19.0521 113.757 16.6667 112.007 14.8125C110.257 12.9375 108.049 12 105.382 12ZM146.804 4.125C150.012 4.125 153.022 4.92708 155.835 6.53125C158.668 8.13542 160.877 10.3125 162.46 13.0625C164.043 15.8125 164.835 18.7812 164.835 21.9688C164.835 25.1771 164.033 28.1771 162.429 30.9688C160.845 33.7604 158.679 35.9479 155.929 37.5312C153.179 39.0938 150.147 39.875 146.835 39.875C141.96 39.875 137.793 38.1458 134.335 34.6875C130.897 31.2083 129.179 26.9896 129.179 22.0312C129.179 16.7188 131.127 12.2917 135.022 8.75C138.439 5.66667 142.366 4.125 146.804 4.125ZM146.929 12.1562C144.283 12.1562 142.075 13.0833 140.304 14.9375C138.554 16.7708 137.679 19.125 137.679 22C137.679 24.9583 138.543 27.3542 140.272 29.1875C142.022 31.0208 144.231 31.9375 146.897 31.9375C149.564 31.9375 151.783 31.0104 153.554 29.1562C155.325 27.3021 156.21 24.9167 156.21 22C156.21 19.0833 155.335 16.7188 153.585 14.9062C151.856 13.0729 149.637 12.1562 146.929 12.1562Z" fill="#007E4C"/>
<path d="M173.158 5H181.689V17.7188L193.439 5H203.845L188.689 21.5625L204.033 39H192.72L182.595 27L181.689 28.0625V39H173.158V5ZM233.298 5H241.798V39H233.298V35.4062C231.631 36.9896 229.954 38.1354 228.266 38.8438C226.6 39.5312 224.787 39.875 222.829 39.875C218.433 39.875 214.631 38.1771 211.423 34.7812C208.214 31.3646 206.61 27.125 206.61 22.0625C206.61 16.8125 208.162 12.5104 211.266 9.15625C214.37 5.80208 218.141 4.125 222.579 4.125C224.62 4.125 226.537 4.51042 228.329 5.28125C230.12 6.05208 231.777 7.20833 233.298 8.75V5ZM224.329 12C221.683 12 219.485 12.9375 217.735 14.8125C215.985 16.6667 215.11 19.0521 215.11 21.9688C215.11 24.9062 215.995 27.3229 217.766 29.2188C219.558 31.1146 221.756 32.0625 224.36 32.0625C227.048 32.0625 229.277 31.1354 231.048 29.2812C232.818 27.4062 233.704 24.9583 233.704 21.9375C233.704 18.9792 232.818 16.5833 231.048 14.75C229.277 12.9167 227.037 12 224.329 12ZM255.469 39V44.9062H247.875V31.7812H253L264.719 5H270.219L282.094 31.7812H287.312V44.9062H279.188V39H255.469ZM273.031 31.7812L267.469 17.4688L261.719 31.7812H273.031ZM301.859 5V8.75C303.4 7.20833 305.067 6.05208 306.859 5.28125C308.65 4.51042 310.567 4.125 312.609 4.125C317.046 4.125 320.817 5.80208 323.921 9.15625C327.025 12.5104 328.577 16.8125 328.577 22.0625C328.577 27.125 326.973 31.3646 323.765 34.7812C320.557 38.1771 316.755 39.875 312.359 39.875C310.4 39.875 308.577 39.5312 306.89 38.8438C305.202 38.1354 303.525 36.9896 301.859 35.4062V51.4375H293.39V5H301.859ZM310.827 12C308.14 12 305.911 12.9167 304.14 14.75C302.369 16.5833 301.484 18.9792 301.484 21.9375C301.484 24.9583 302.369 27.4062 304.14 29.2812C305.911 31.1354 308.14 32.0625 310.827 32.0625C313.432 32.0625 315.619 31.1146 317.39 29.2188C319.182 27.3229 320.077 24.9062 320.077 21.9688C320.077 19.0521 319.202 16.6667 317.452 14.8125C315.702 12.9375 313.494 12 310.827 12ZM344.811 17.25H347.342C350.905 17.25 353.634 17.5312 355.53 18.0938C357.447 18.6354 359.061 19.7812 360.374 21.5312C361.686 23.2812 362.342 25.4792 362.342 28.125C362.342 30.75 361.749 32.9375 360.561 34.6875C359.374 36.4167 357.853 37.5729 355.999 38.1562C354.165 38.7188 351.582 39 348.249 39H336.249V5H344.811V17.25ZM344.811 32.4375H347.405C348.947 32.4375 350.061 32.3333 350.749 32.125C351.436 31.8958 352.04 31.4688 352.561 30.8438C353.082 30.2188 353.342 29.4583 353.342 28.5625C353.342 25.6458 351.676 24.1875 348.342 24.1875H344.811V32.4375ZM368.28 5H376.811V39H368.28V5Z" fill="#FF6B35"/>
<path d="M388.489 32.3203C389.504 32.3203 390.372 32.6797 391.09 33.3984C391.809 34.1016 392.168 34.9609 392.168 35.9766C392.168 36.9922 391.809 37.8594 391.09 38.5781C390.372 39.2969 389.504 39.6562 388.489 39.6562C387.473 39.6562 386.606 39.2969 385.887 38.5781C385.168 37.8594 384.809 36.9922 384.809 35.9766C384.809 34.9609 385.168 34.1016 385.887 33.3984C386.606 32.6797 387.473 32.3203 388.489 32.3203ZM405.281 13.5V16.3125C406.438 15.1562 407.688 14.2891 409.031 13.7109C410.375 13.1328 411.812 12.8438 413.344 12.8438C416.672 12.8438 419.5 14.1016 421.828 16.6172C424.156 19.1328 425.32 22.3594 425.32 26.2969C425.32 30.0938 424.117 33.2734 421.711 35.8359C419.305 38.3828 416.453 39.6562 413.156 39.6562C411.688 39.6562 410.32 39.3984 409.055 38.8828C407.789 38.3516 406.531 37.4922 405.281 36.3047V48.3281H398.93V13.5H405.281ZM412.008 18.75C409.992 18.75 408.32 19.4375 406.992 20.8125C405.664 22.1875 405 23.9844 405 26.2031C405 28.4688 405.664 30.3047 406.992 31.7109C408.32 33.1016 409.992 33.7969 412.008 33.7969C413.961 33.7969 415.602 33.0859 416.93 31.6641C418.273 30.2422 418.945 28.4297 418.945 26.2266C418.945 24.0391 418.289 22.25 416.977 20.8594C415.664 19.4531 414.008 18.75 412.008 18.75ZM448.886 36.8203C446.652 38.7578 444.214 39.7266 441.574 39.7266C438.371 39.7266 435.589 38.4609 433.23 35.9297C430.871 33.3828 429.691 30.2031 429.691 26.3906C429.691 22.4062 430.839 19.1719 433.136 16.6875C435.433 14.1875 438.191 12.9375 441.41 12.9375C444.285 12.9375 446.777 13.9141 448.886 15.8672V3.65625H455.238V15.8672C457.347 13.8516 459.839 12.8438 462.714 12.8438C464.761 12.8438 466.667 13.3828 468.433 14.4609C470.199 15.5391 471.636 17.0859 472.746 19.1016C473.855 21.1172 474.41 23.5156 474.41 26.2969C474.41 30.1875 473.214 33.3906 470.824 35.9062C468.449 38.4062 465.691 39.6562 462.55 39.6562C459.91 39.6562 457.472 38.7109 455.238 36.8203V48.3281H448.886V36.8203ZM468.011 26.25C468.011 24.0781 467.394 22.2969 466.16 20.9062C464.925 19.5 463.332 18.7969 461.378 18.7969C459.691 18.7969 458.214 19.4688 456.949 20.8125C455.699 22.1406 455.074 24.0391 455.074 26.5078C455.074 28.8047 455.675 30.6016 456.878 31.8984C458.097 33.1953 459.605 33.8438 461.402 33.8438C463.261 33.8438 464.824 33.1328 466.089 31.7109C467.371 30.2734 468.011 28.4531 468.011 26.25ZM449.074 26.4844C449.074 24.8125 448.792 23.4453 448.23 22.3828C447.667 21.3047 446.91 20.4453 445.957 19.8047C445.019 19.1641 443.949 18.8438 442.746 18.8438C440.683 18.8438 439.066 19.5781 437.894 21.0469C436.722 22.5 436.136 24.25 436.136 26.2969C436.136 28.4844 436.769 30.2969 438.035 31.7344C439.3 33.1719 440.863 33.8906 442.722 33.8906C444.519 33.8906 446.027 33.25 447.246 31.9688C448.464 30.6719 449.074 28.8438 449.074 26.4844Z" fill="#5D5E5F"/>
</svg>
