<svg width="111" height="111" viewBox="0 0 111 111" fill="none" xmlns="http://www.w3.org/2000/svg">
<circle cx="55.5" cy="55.5" r="55.5" fill="white"/>
<path d="M39.3125 38H47.8125V72H39.3125V68.4062C37.6458 69.9896 35.9688 71.1354 34.2812 71.8438C32.6146 72.5312 30.8021 72.875 28.8438 72.875C24.4479 72.875 20.6458 71.1771 17.4375 67.7812C14.2292 64.3646 12.625 60.125 12.625 55.0625C12.625 49.8125 14.1771 45.5104 17.2812 42.1562C20.3854 38.8021 24.1562 37.125 28.5938 37.125C30.6354 37.125 32.5521 37.5104 34.3438 38.2812C36.1354 39.0521 37.7917 40.2083 39.3125 41.75V38ZM30.3438 45C27.6979 45 25.5 45.9375 23.75 47.8125C22 49.6667 21.125 52.0521 21.125 54.9688C21.125 57.9062 22.0104 60.3229 23.7812 62.2188C25.5729 64.1146 27.7708 65.0625 30.375 65.0625C33.0625 65.0625 35.2917 64.1354 37.0625 62.2812C38.8333 60.4062 39.7188 57.9583 39.7188 54.9375C39.7188 51.9792 38.8333 49.5833 37.0625 47.75C35.2917 45.9167 33.0521 45 30.3438 45Z" fill="#007E4C"/>
<path d="M65.125 38H73.6562V50.7188L85.4062 38H95.8125L80.6562 54.5625L96 72H84.6875L74.5625 60L73.6562 61.0625V72H65.125V38Z" fill="#FF6B35"/>
</svg>
